<?xml version="1.0" standalone="no"?><!DOCTYPE svg PUBLIC "-//W3C//DTD SVG 1.1//EN" "http://www.w3.org/Graphics/SVG/1.1/DTD/svg11.dtd"><svg t="1659785979172" class="icon" viewBox="0 0 1024 1024" version="1.1" xmlns="http://www.w3.org/2000/svg" p-id="14750" xmlns:xlink="http://www.w3.org/1999/xlink" width="32" height="32"><defs><style type="text/css"></style></defs><path d="M608 704H416c-17.6 0-32 14.4-32 32s14.4 32 32 32h192c17.6 0 32-14.4 32-32s-14.4-32-32-32z" fill="#1875F0" p-id="14751"></path><path d="M916.1 303.3l-129-180.5c-12-16.8-31.4-26.8-52-26.8H288.9c-20.7 0-40.1 10-52.1 26.8L107.9 303.3c-7.8 10.9-11.9 23.9-11.9 37.2V448c0 52.1 25.2 98.5 64 127.8V800c0 70.7 57.3 128 128 128h448c70.7 0 128-57.3 128-128V575.8c38.8-29.3 64-75.7 64-127.8V340.5c0-13.3-4.2-26.3-11.9-37.2zM288.9 160H735l91.4 128h-629l91.5-128zM800 800c0 35.3-28.7 64-64 64H288c-35.3 0-64-28.7-64-64V604.8c10.3 2.1 21 3.2 32 3.2 52.2 0 98.7-25.3 128-64.3 29.3 39 75.8 64.3 128 64.3s98.7-25.3 128-64.3c29.3 39 75.8 64.3 128 64.3 11 0 21.7-1.1 32-3.2V800z m64-352c0 25.5-10 49.5-28.3 67.7C817.5 534 793.5 544 768 544c-15.2 0-29.8-3.5-43.4-10.5-13-6.7-24.6-16.5-33.4-28.2-12.1-16.1-31-25.6-51.2-25.6s-39.1 9.5-51.2 25.6c-8.9 11.8-20.4 21.6-33.4 28.2-13.5 6.9-28.1 10.5-43.4 10.5-15.2 0-29.8-3.5-43.4-10.5-13-6.7-24.6-16.5-33.4-28.2-12.1-16.1-31-25.6-51.2-25.6s-39.1 9.5-51.2 25.6c-8.9 11.8-20.4 21.6-33.4 28.2-13.5 6.9-28.1 10.5-43.4 10.5-25.5 0-49.5-10-67.7-28.3C170 497.5 160 473.5 160 448v-96h704v96z" fill="#1875F0" p-id="14752"></path></svg>